<!DOCTYPE svg PUBLIC "-//W3C//DTD SVG 1.1//EN" "http://www.w3.org/Graphics/SVG/1.1/DTD/svg11.dtd">
<svg xmlns="http://www.w3.org/2000/svg" version="1.1" width="700" height="1000" viewBox="0 0 700 1000">
  <defs>
    <style>
      .outline { fill: none; stroke: #000; stroke-width: 2; }
      .dimension-line { stroke: #ff0000; stroke-width: 1; fill: none; }
      .dimension-text { font-family: Arial, sans-serif; font-size: 12px; fill: #ff0000; }
      .dimension-arrow { stroke: #ff0000; stroke-width: 1; fill: #ff0000; }
      .construction-line { stroke: #888; stroke-width: 0.5; stroke-dasharray: 3,3; fill: none; }
    </style>
    <marker id="arrowhead" markerWidth="10" markerHeight="10" refX="5" refY="3" orient="auto">
      <polygon points="0 0, 10 3, 0 6" fill="#ff0000" />
    </marker>
    <marker id="arrowhead-reverse" markerWidth="10" markerHeight="10" refX="5" refY="3" orient="auto">
      <polygon points="10 0, 0 3, 10 6" fill="#ff0000" />
    </marker>
  </defs>
  
  <!-- Title -->
  <text x="350" y="30" text-anchor="middle" style="font-family: Arial, sans-serif; font-size: 18px; font-weight: bold;">Mattress Technical Drawing</text>
  <text x="350" y="50" text-anchor="middle" style="font-family: Arial, sans-serif; font-size: 12px;">All dimensions in inches</text>
  
  <!-- Main coordinate offset for drawing -->
  <g transform="translate(150, 100)">
    
    <!-- The mattress outline -->
    <path class="outline" d="
      M 0,0
      L 280,0
      A 30,30 0 0,1 310,30
      L 310,770
      A 30,30 0 0,1 280,800
      L 30,800
      L 30,655
      L 25,655
      A 25,25 0 0,1 0,630
      L 0,0
      Z
    " />
    
    <!-- Width dimension at top (31") -->
    <g>
      <line class="dimension-line" x1="5" y1="-30" x2="305" y2="-30" marker-start="url(#arrowhead-reverse)" marker-end="url(#arrowhead)" />
      <text class="dimension-text" x="155" y="-35" text-anchor="middle">31"</text>
    </g>
    
    <!-- Overall length dimension (80") -->
    <g>
      <line class="dimension-line" x1="360" y1="5" x2="360" y2="795" marker-start="url(#arrowhead-reverse)" marker-end="url(#arrowhead)" />
      <text class="dimension-text" x="390" y="405" text-anchor="middle">80"</text>
    </g>
    
    <!-- Width at bottom (28") -->
    <g>
      <line class="dimension-line" x1="35" y1="850" x2="305" y2="850" marker-start="url(#arrowhead-reverse)" marker-end="url(#arrowhead)" />
      <text class="dimension-text" x="170" y="870" text-anchor="middle">28"</text>
    </g>
    
    <!-- Top right corner radius (3") -->
    <g>
      <circle cx="280" cy="30" r="3" fill="#ff0000" />
      <text class="dimension-text" x="320" y="25" text-anchor="start">R 3"</text>
    </g>
    
    <!-- Bottom right corner radius (3") -->
    <g>
      <circle cx="280" cy="770" r="3" fill="#ff0000" />
      <text class="dimension-text" x="320" y="775" text-anchor="start">R 3"</text>
    </g>
    
    <!-- Left curve radius (2.5") -->
    <g>
      <circle cx="25" cy="630" r="3" fill="#ff0000" />
      <line class="dimension-line" x1="25" y1="630" x2="-35" y2="600" stroke-dasharray="2,2" />
      <text class="dimension-text" x="-40" y="600" text-anchor="end">R 2.5"</text>
    </g>
    
    <!-- Cutout width dimension (3") -->
    <g>
      <line class="dimension-line" x1="5" y1="740" x2="25" y2="740" marker-start="url(#arrowhead-reverse)" marker-end="url(#arrowhead)" />
      <text class="dimension-text" x="15" y="730" text-anchor="middle">3"</text>
    </g>
    
    <!-- Half inch straight segment dimension (0.5") -->
    <g>
      <!-- Vertical dashed reference lines -->
      <line class="construction-line" x1="25" y1="650" x2="25" y2="675" />
      <line class="construction-line" x1="30" y1="650" x2="30" y2="675" />
      <!-- Dimension lines with arrows pointing inward (tips align with dashed lines) -->
      <line class="dimension-line" x1="15" y1="665" x2="20" y2="665" marker-end="url(#arrowhead)" />
      <line class="dimension-line" x1="40" y1="665" x2="35" y2="665" marker-end="url(#arrowhead)" />
      <!-- Leader line to label -->
      <line class="dimension-line" x1="27.5" y1="665" x2="60" y2="680" stroke-dasharray="2,2" />
      <text class="dimension-text" x="65" y="683" text-anchor="start" style="font-size: 10px;">0.5"</text>
    </g>
    
    <!-- Cutout height dimension (17") -->
    <g>
      <line class="dimension-line" x1="-50" y1="635" x2="-50" y2="795" marker-start="url(#arrowhead-reverse)" marker-end="url(#arrowhead)" />
      <text class="dimension-text" x="-80" y="720" text-anchor="middle">17"</text>
    </g>
    
    <!-- Distance from top to curve start (63") -->
    <g>
      <line class="dimension-line" x1="-80" y1="5" x2="-80" y2="625" marker-start="url(#arrowhead-reverse)" marker-end="url(#arrowhead)" />
      <text class="dimension-text" x="-110" y="315" text-anchor="middle">63"</text>
    </g>
    
    <!-- Construction lines for clarity -->
    <line class="construction-line" x1="-100" y1="0" x2="370" y2="0" />
    <line class="construction-line" x1="-100" y1="630" x2="50" y2="630" />
    <line class="construction-line" x1="-100" y1="655" x2="50" y2="655" />
    <line class="construction-line" x1="-100" y1="800" x2="320" y2="800" />
    <line class="construction-line" x1="0" y1="-50" x2="0" y2="850" />
    <line class="construction-line" x1="310" y1="-50" x2="310" y2="850" />
    <line class="construction-line" x1="30" y1="655" x2="30" y2="870" />
    
    <!-- Additional labels for key points -->
    <g>
      <circle cx="0" cy="0" r="2" fill="#0000ff" />
      <text x="-20" y="-10" style="font-family: Arial, sans-serif; font-size: 10px; fill: #0000ff;">Top Left</text>
    </g>
    
    <g>
      <circle cx="310" cy="0" r="2" fill="#0000ff" />
      <text x="320" y="-10" style="font-family: Arial, sans-serif; font-size: 10px; fill: #0000ff;">Top Right</text>
    </g>
    
  </g>
  
  <!-- Notes -->
  <text x="20" y="960" style="font-family: Arial, sans-serif; font-size: 11px;">Notes:</text>
  <text x="20" y="980" style="font-family: Arial, sans-serif; font-size: 10px;">• Both right corners have 3" radius curves</text>
  <text x="20" y="995" style="font-family: Arial, sans-serif; font-size: 10px;">• Bottom left cutout accommodates protrusion (17" × 3" with 2.5" radius + 0.5" straight segment)</text>
  
</svg>

